<svg width="13" height="13" viewBox="0 0 13 13" fill="none" xmlns="http://www.w3.org/2000/svg">
<g opacity="0.2">
<path d="M0.286343 0.285991C0.667655 -0.0953304 1.28588 -0.0953304 1.6672 0.285991L12.714 11.3331C13.0953 11.7144 13.0953 12.3327 12.714 12.714C12.3327 13.0953 11.7145 13.0953 11.3332 12.714L0.286343 1.66688C-0.0949686 1.28556 -0.0949689 0.667313 0.286343 0.285991Z" fill="#24292C"/>
<path d="M0.285984 12.714C-0.0953279 12.3327 -0.095328 11.7144 0.285984 11.3331L11.3328 0.286014C11.7141 -0.0953074 12.3323 -0.0953078 12.7137 0.286014C13.095 0.667336 13.095 1.28558 12.7137 1.6669L1.66684 12.714C1.28553 13.0953 0.667296 13.0953 0.285984 12.714Z" fill="#24292C"/>
</g>
</svg>
