<svg width="60" height="60" viewBox="0 0 60 60" fill="none" xmlns="http://www.w3.org/2000/svg">
<g clip-path="url(#clip0)">
<path d="M59.0742 12.1064H54.1889C54.3308 11.9073 54.4595 11.6981 54.5721 11.4788C55.2184 10.2163 55.3059 8.72949 54.8119 7.39922L53.3315 3.42032C52.838 2.09143 51.8012 1.02301 50.4879 0.489251C49.1732 -0.0449618 47.6841 -0.00238962 46.4019 0.606439L34.6858 6.17058C34.1067 5.75676 33.3986 5.51231 32.6341 5.51231H27.3661C26.6017 5.51231 25.8931 5.75722 25.314 6.17104L13.5984 0.605981C12.3162 -0.00238956 10.8271 -0.0449618 9.51237 0.489251C8.19904 1.02301 7.1622 2.09143 6.66873 3.41987L5.18831 7.39968C4.69439 8.72949 4.78182 10.2163 5.42864 11.4788C5.54079 11.6981 5.66988 11.9078 5.81179 12.1064H0.92606C0.414736 12.1064 0 12.5207 0 13.0325V19.6989C0 20.2103 0.414736 20.625 0.92606 20.625C1.43738 20.625 1.85212 20.2103 1.85212 19.6989V13.9581H8.28418C8.38718 13.9943 8.49155 14.0277 8.5973 14.057L16.3715 16.197C14.6439 18.8443 13.12 21.6289 11.8154 24.5142H1.85212V23.4027C1.85212 22.8914 1.43738 22.4771 0.92606 22.4771C0.414736 22.4771 0 22.8914 0 23.4027V25.4402C0 25.9516 0.414736 26.3663 0.92606 26.3663H4.22838V59.1501C4.22838 59.6619 4.64312 60.0762 5.15444 60.0762H54.8458C55.3571 60.0762 55.7719 59.6619 55.7719 59.1501V53.7732C55.7719 53.2619 55.3571 52.8471 54.8458 52.8471C54.334 52.8471 53.9197 53.2619 53.9197 53.7732V58.2245H35.5556V26.9357C38.1786 31.9039 39.9542 37.306 40.7713 42.8875C40.8254 43.2569 41.0964 43.5577 41.4585 43.6501C41.5344 43.6698 41.6113 43.679 41.6878 43.679C41.9739 43.679 42.2495 43.5462 42.4271 43.3105C43.7583 41.5444 44.9961 39.6539 46.1135 37.68C47.9848 38.9544 49.8017 40.3753 51.5256 41.9134C51.8163 42.1725 52.2384 42.2224 52.5812 42.0374C52.9241 41.853 53.115 41.4735 53.0582 41.088C52.3189 36.0448 50.9406 31.0854 48.9869 26.3663H53.9193V50.0689C53.9193 50.5807 54.334 50.995 54.8453 50.995C55.3571 50.995 55.7714 50.5807 55.7714 50.0689V26.3663H59.0742C59.5855 26.3663 59.9998 25.9516 59.9998 25.4402V13.0325C60.0002 12.5207 59.586 12.1064 59.0742 12.1064V12.1064ZM47.1961 2.27911C48.0224 1.88727 48.9434 1.86072 49.7907 2.20496C50.6367 2.54874 51.2775 3.20929 51.5957 4.06577L53.0756 8.04422C53.3942 8.90115 53.3398 9.82126 52.9232 10.6347C52.5071 11.4477 51.7925 12.0291 50.9118 12.2712L36.1713 16.3293V11.8789C39.4846 9.8501 47.7445 5.66566 49.8003 8.56744C50.0956 8.98447 50.6733 9.0838 51.0908 8.78808C51.5082 8.49237 51.6071 7.91421 51.3114 7.49719C49.7248 5.25734 46.3813 5.14839 41.3729 7.174C39.3097 8.00805 37.4049 9.02612 36.1713 9.73245V9.04901C36.1713 8.55325 36.0683 8.08084 35.8833 7.65191L47.1961 2.27911ZM27.3661 7.36398H32.6341C33.5634 7.36398 34.3191 8.1202 34.3191 9.04901V16.7033C34.3191 17.6326 33.5634 18.3883 32.6341 18.3883H27.3661C26.4369 18.3883 25.6811 17.6326 25.6811 16.7033V9.04901C25.6811 8.11975 26.4369 7.36398 27.3661 7.36398V7.36398ZM25.8097 24.5137C26.6955 23.042 27.6596 21.6156 28.6969 20.2405H31.3025C32.3402 21.6156 33.3043 23.042 34.1896 24.5137H25.8097ZM7.07706 10.6347C6.66049 9.82126 6.60601 8.90115 6.92416 8.04467L8.40503 4.06532C8.72272 3.20929 9.36359 2.54874 10.2095 2.20496C11.0564 1.86072 11.9779 1.88727 12.8037 2.27911L24.1169 7.65283C23.932 8.08129 23.829 8.55325 23.829 9.04947V9.78556C22.5994 9.07785 20.6516 8.02957 18.5358 7.174C13.5279 5.14839 10.1839 5.25734 8.5973 7.49719C8.30158 7.91421 8.40046 8.49237 8.81794 8.78808C9.23542 9.0838 9.81312 8.98492 10.1084 8.56744C12.1834 5.6382 20.5793 9.92929 23.829 11.9352V16.3293L9.08894 12.2717C8.20774 12.0291 7.49316 11.4477 7.07706 10.6347ZM24.2446 18.3645C24.7056 19.227 25.5131 19.8775 26.4804 20.1279C22.1494 26.1704 19.168 33.1133 17.7695 40.411C16.7858 38.9736 15.8662 37.4671 15.0243 35.9112C14.9012 35.6832 14.6888 35.5175 14.4375 35.4539C14.1866 35.3902 13.9207 35.4346 13.7041 35.5761C12.1619 36.5818 10.6517 37.685 9.19331 38.8697C10.6952 30.9861 13.7984 23.3844 18.2484 16.7138L24.2446 18.3645ZM6.0805 26.3663H11.0134C9.05964 31.0854 7.68131 36.0444 6.94156 41.088C6.88525 41.4735 7.07568 41.853 7.41855 42.0374C7.76187 42.2219 8.18347 42.1725 8.47416 41.9134C10.1981 40.3753 12.015 38.9544 13.8868 37.68C15.0042 39.6539 16.2415 41.544 17.5732 43.3105C17.7508 43.5462 18.0264 43.6794 18.3125 43.6794C18.3889 43.6794 18.4658 43.6698 18.5418 43.6501C18.9039 43.5577 19.1744 43.2569 19.2284 42.8875C20.046 37.306 21.8217 31.9034 24.4442 26.9353V58.2245H6.0805V26.3663ZM26.2963 58.2245V26.3663H33.7039V58.2245H26.2963ZM46.2961 35.5761C46.0796 35.4346 45.8132 35.3907 45.5628 35.4543C45.3119 35.5179 45.0991 35.6836 44.9759 35.9112C44.1341 37.4671 43.2144 38.9741 42.2307 40.411C40.8322 33.1128 37.8508 26.1704 33.5194 20.1283C34.4867 19.8784 35.2946 19.2274 35.7556 18.3645L41.7533 16.7134C46.2023 23.3853 49.3055 30.987 50.8074 38.8697C49.3485 37.685 47.8383 36.5818 46.2961 35.5761V35.5761ZM58.1481 24.5142H48.1853C46.8807 21.6289 45.3568 18.8443 43.6296 16.197L51.403 14.057C51.5087 14.0277 51.6131 13.9943 51.7161 13.9581H58.1481V24.5142Z" fill="#FFD5AE"/>
</g>
<defs>
<clipPath id="clip0">
<rect width="60" height="60" fill="white"/>
</clipPath>
</defs>
</svg>
