<svg width="17" height="9" viewBox="0 0 17 9" fill="none" xmlns="http://www.w3.org/2000/svg">
<path d="M13.3728 5.16086C13.1142 4.84586 13.1882 4.70571 13.3728 4.42414C13.3762 4.42093 15.5116 1.57564 15.7316 0.610714L15.7329 0.610071C15.8422 0.258428 15.7329 0 15.2042 0H13.4548C13.0095 0 12.8041 0.221786 12.6941 0.469929C12.6941 0.469929 11.8034 2.52579 10.5434 3.85843C10.1367 4.2435 9.94871 4.36693 9.7267 4.36693C9.61737 4.36693 9.44736 4.2435 9.44736 3.89186V0.610071C9.44736 0.188357 9.32269 0 8.95401 0H6.20325C5.92391 0 5.7579 0.196714 5.7579 0.379929C5.7579 0.779786 6.38792 0.871714 6.45326 1.99671V4.43764C6.45326 4.9725 6.35259 5.07086 6.12925 5.07086C5.53456 5.07086 4.09117 3.00664 3.23581 0.644143C3.06314 0.185786 2.89447 0.000642811 2.44578 0.000642811H0.695724C0.196373 0.000642811 0.0957031 0.222428 0.0957031 0.470571C0.0957031 0.909 0.69039 3.08893 2.86113 5.96893C4.30785 7.93479 6.34525 9 8.19865 9C9.31269 9 9.44869 8.76343 9.44869 8.3565C9.44869 6.47807 9.34802 6.30064 9.90604 6.30064C10.1647 6.30064 10.6101 6.42407 11.6501 7.37229C12.8388 8.49664 13.0342 9 13.6995 9H15.4489C15.9476 9 16.2003 8.76343 16.0549 8.29671C15.7222 7.31507 13.4742 5.29586 13.3728 5.16086V5.16086Z" fill="#333333"/>
</svg>
